<?xml version="1.0" encoding="utf-8"?>
<!-- Generator: Adobe Illustrator 25.2.3, SVG Export Plug-In . SVG Version: 6.00 Build 0)  -->
<svg version="1.1" id="レイヤー_1" xmlns="http://www.w3.org/2000/svg" xmlns:xlink="http://www.w3.org/1999/xlink" x="0px"
	 y="0px" viewBox="0 0 51 38.8" style="enable-background:new 0 0 51 38.8;" xml:space="preserve">
<style type="text/css">
	.st0{fill:#FFFFFF;stroke:#005876;stroke-miterlimit:10;}
	.st1{fill:#005876;stroke:#005876;stroke-miterlimit:10;}
	.st2{fill:none;stroke:#005876;stroke-linecap:round;stroke-miterlimit:10;}
</style>
<g>
	<path class="st0" d="M38.7,19.1c0,0,2.7,18.6-13.2,18.6S11.8,19.4,11.8,19.4s2-8.2,13.5-8.2S38.7,19.1,38.7,19.1z"/>
	<path class="st1" d="M25.8,0.9l-23.5,8C2,9,2,9.3,2.2,9.4l8.7,3.9h29.4l8.4-3.9C49,9.3,49,9,48.8,8.9l-22.9-8
		C25.9,0.9,25.8,0.9,25.8,0.9z"/>
	<g>
		<path class="st1" d="M38.7,19.8c-10.4-2.4-16-2.4-26.4,0c-0.4,0.1-0.8-0.1-0.9-0.5c-0.5-2.1-0.8-3.2-1.3-5.3
			c-0.1-0.4,0.2-0.7,0.6-0.8c9-2.3,20.5-2.3,29.5,0c0.4,0.1,0.7,0.5,0.6,0.8c-0.5,2.1-0.8,3.2-1.3,5.3
			C39.5,19.7,39.1,19.9,38.7,19.8z"/>
	</g>
	<line class="st2" x1="43.9" y1="11.2" x2="43.9" y2="18.6"/>
</g>
</svg>
